<svg width="326.66666" height="217.66666" xmlns="http://www.w3.org/2000/svg">
 <metadata id="metadata8">image/svg+xml</metadata>

 <g>
  <title>background</title>
  <rect fill="none" id="canvas_background" height="219.66666" width="328.66666" y="-1" x="-1"/>
 </g>
 <g>
  <title>Layer 1</title>
  <g id="g10" transform="matrix(1.3333333,0,0,-1.3333333,0,274.66667) ">
   <g id="g12" transform="scale(0.10000000149011612) ">
    <path fill="#262161" fill-rule="evenodd" d="m2248.4,1428.98c-1.99,1.64 -13.32,13.01 -33.99,33.99c-20.66,21.01 -38.16,42.34 -52.5,64.02c-6.36,7.66 -20.66,19.65 -43,35.98c1.64,1.68 -0.51,17.19 -6.53,46.52c-6.33,28.99 -25,61.64 -55.97,97.97c-2.35,1.68 -13.68,12.85 -34.03,33.52c-20.31,20.66 -35.66,41.17 -45.97,61.48c4.64,10.66 -20,40.86 -74.03,90.51c-1.64,2.65 -12.81,16.01 -33.47,40c-21.02,24.02 -41.68,42.34 -62,55c-10.35,2.34 -27.03,7.85 -50,16.52c-7.03,1.33 -23.36,12.15 -49.02,32.5c-1.64,7.66 -18.32,12.31 -50,13.99c-10.31,-6.68 -32.5,-6.33 -66.48,1.01c2.34,10.67 -31.18,10.67 -100.51,0c-5.67,1.33 -41.33,-14.02 -106.99,-46.01c-66.02,-32 -128.52,-88.83 -187.5,-170.51c-6.68,-7.66 -34.5,-51.33 -83.52,-130.98c-48.67,-80 -77.66,-151.37 -86.99,-214.02c0.35,-2.35 -0.35,-15.82 -1.99,-40.51c-1.68,-24.65 -6.33,-46.64 -14.03,-65.98c-3.63,-4.33 -20.97,-39.68 -51.989,-106.01c-30.981,-66.64 -54.141,-139.14 -69.493,-217.5c-5.347,-4.65 -41.328,-23.83 -108.007,-57.5c-8.321,6.01 -44.653,-17.501 -108.981,-70.509c-4.34,1.019 -38.172,-11.992 -101.531,-38.981c-63.32,-27 -131.481,-73.519 -204.488,-139.5c-72.661,-66.011 -125.161,-157.179 -157.5,-273.511l1669.019,0c-3.67,37.652 -17.03,78.16 -40,121.519c-2.03,2.313 -13.16,13.321 -33.51,32.973c-20.67,20 -39.18,34.019 -55.51,42.027c9.02,4.34 53.67,33.832 134.02,88.481c80,54.691 141.49,109.179 184.5,163.511c6.99,10.321 39.64,60.821 98,151.49c57.97,90.66 99.34,160.51 123.99,209.49c2.34,2.03 3.98,17.85 5,47.5c0.66,29.69 -14.34,60.2 -45,91.52" id="path14"/>
    <path fill="#000000" fill-rule="evenodd" d="m1531.91,594.961c-4.68,1.68 -34.68,26.168 -90,73.519c-55.66,47.34 -109.33,106.68 -161.01,178c-51.99,71.329 -74.65,143.829 -68.01,217.5c-8.01,10.32 5.86,42.15 41.52,95.51c3.64,-6.01 15.47,0.98 35.47,20.98c-1.64,-0.31 -6.99,2.34 -15.97,8.01c-9.03,5.66 -11.18,16.68 -6.53,33c-8.32,-0.66 -31.83,-22.5 -70.47,-65.5c-38.67,-43.01 -43,-102.5 -13,-178.519c-5,0 -13.83,18.519 -26.53,55.509c-12.65,36.99 1.53,93.01 42.5,168.01c1.68,1.99 10.67,21.17 27.03,57.5c16.33,36.68 30.47,79.49 42.5,128.51c0.67,10.67 10.32,60.47 28.99,149.49c18.32,88.68 40.51,152 66.48,190c-3.63,1.33 -21.83,-14.68 -54.49,-48c-32.66,-33.68 -58.16,-93.32 -76.48,-178.99c-1.02,-4.69 -9.03,-33.16 -24.03,-85.51c-15,-52.65 -31.99,-100.5 -50.97,-143.51c-2,-0.67 -7.86,-14.14 -17.5,-40.51c-9.34,-26.33 -9.85,-61.64 -1.53,-105.98c-4.33,3.68 -17.97,50 -40.97,138.99c-23.36,89.02 -31.02,197.85 -23.01,326.52c-1.68,-1.01 -6.99,-16.17 -16.02,-45.51c-8.98,-29.02 -11.13,-65.15 -6.48,-108.51c2.34,-8.67 2.65,-62.35 1.01,-160.98c-2.03,-99.02 -19.18,-191.68 -51.52,-278.01c0.35,8.68 1.02,54.14 1.99,136.49c1.02,82.34 0.35,149.49 -1.99,201.52c-3.011,-1.68 -11.331,-29.02 -24.999,-82.03c-13.981,-52.66 -16.332,-120.82 -6.993,-204.49c0.661,-3.01 -0.347,-19.34 -3.007,-48.99c-2.661,-29.679 -11.641,-55 -26.993,-76.011c4.332,-5.309 43.832,-39.137 118.512,-101.489c74.65,-62.652 157.97,-121.011 250,-175c92,-54.019 166.14,-71.171 222.5,-51.519" id="path16"/>
    <path fill="#000000" fill-rule="evenodd" d="m770.391,818.98c3.359,-2.648 19.179,-27.648 47.5,-75c28.668,-47.339 50,-100.66 64.019,-160c0.668,-5 5.981,-16.519 15.981,-34.492c10.347,-17.687 22.847,-11.168 37.5,19.492c10.347,-7.339 26.519,-36.832 48.519,-88.511l38,0c-1.01,1.992 -2.85,16.172 -5.5,42.5c-2.66,26.332 -0.86,51.519 5.5,75.511c2,-0.359 12.31,-8.519 30.98,-24.5c18.67,-15.66 32.85,-36.32 42.5,-61.992c1.68,1.641 -0.82,16.84 -7.5,45.473c-6.64,28.668 -27.5,61.367 -62.5,98.008c-2.34,1.679 -14.14,20.511 -35.511,56.519c-21.328,36.332 -39.488,80.821 -54.488,133.481c5,-0.981 33.16,-33.828 84.489,-98.481c51.37,-64.328 96.53,-153.16 135.51,-266.519l201.52,0c-6.68,6.992 -6.68,49.332 0,126.992l-190,164.527l-273,147.973c-2.351,4.34 -20.672,12.848 -55,25.508c-0.672,-2.348 -9.851,-15.508 -27.5,-39.489c-18.012,-23.992 -40.512,-45.82 -67.5,-65.511c-2.66,-1.328 -16.332,-12.348 -41.019,-33.008c-25,-20.66 -45.821,-43.32 -62.5,-67.973c1.988,-0.66 13.519,-9.328 34.488,-26.008c21.019,-16.332 39.531,-35.671 55.512,-58.011c-0.981,1.992 -6.84,12.5 -17.5,31.519c-10.981,18.992 -21.84,34.653 -32.5,46.992c0.347,1.641 8.519,12.5 24.488,32.5c16.019,19.649 37.851,37.149 65.512,52.5" id="path18"/>
    <path fill="#000000" fill-rule="evenodd" d="m1704.41,656.988c-3.67,0 -20.86,-5.187 -51.52,-15.508c-30.66,-10.351 -53.16,-25.859 -67.5,-46.519c2.34,-1.992 13.67,-15.66 34.02,-40.981c20,-25.66 34.5,-50.152 43.48,-73.511l121.52,0c0,2.34 -5.35,17.652 -16.01,46.011c-10.67,28.008 -26.02,54.5 -46.02,79.5c2.03,-0.671 13.52,-6.679 34.53,-18.011c21.33,-11.641 40.47,-25 57.5,-40c0.32,2.34 -8.51,15.859 -26.52,40.511c-18.01,25 -45.82,47.848 -83.48,68.508" id="path20"/>
    <path fill="#000000" fill-rule="evenodd" d="m2090.39,1825.47c0.66,2.34 -3.83,9.49 -13.48,21.52c-9.33,11.99 -27.5,15.47 -54.53,10.47c-3.32,-3.32 -24.14,-8.48 -62.5,-15.47c-38.63,-7.03 -75.31,4.65 -110,35c-2.97,2.31 -10.97,20 -23.98,52.97c-13.01,33.01 -13.67,68.67 -1.99,107.03c-2.35,-5.35 8,-26.17 30.97,-62.5c22.7,-36.37 72.19,-56.37 148.52,-60c3.01,0.67 16.68,-5.35 41.01,-18.01c24.34,-12.65 39.65,-36.32 45.98,-71.01" id="path22"/>
    <path fill="#000000" fill-rule="evenodd" d="m1819.41,1722.97c0.32,2.65 -5,11.99 -16.01,28.01c-11.33,16.32 -29.85,23.32 -55.51,21.01l6.52,15c7.66,1.99 17.5,4.14 29.5,6.49c13.98,1.99 25.82,3.82 35.5,5.5l0,-4.49c0.67,-1.68 2.97,-8.51 7,-20.51c3.67,-11.99 5.97,-19.33 6.99,-21.99c-4.34,-10.66 -8.99,-20.35 -13.99,-29.02" id="path24"/>
    <path fill="#000000" fill-rule="evenodd" d="m1827.38,1793.98c3.01,2 16.84,2.66 41.53,2c24.64,-0.67 43,-15.36 55,-43.99c2.65,7.97 5.15,19.65 7.5,35c1.99,-0.35 13.82,-4.69 35.5,-13.01c21.33,-8.36 39.5,-19.18 54.5,-32.5c-0.67,2.35 -12.66,13.32 -36.02,33.01c-23.32,19.34 -52.5,33.63 -87.5,42.97l-101.99,-5l31.48,-18.48" id="path26"/>
    <path fill="#000000" fill-rule="evenodd" d="m1762.38,1958.98c-2.65,-1.01 -21.13,0.51 -55.47,4.5c-34.68,3.98 -69.53,16.48 -104.53,37.5c-1.64,-4.34 8.01,-16.18 29.03,-35.51c21.32,-19.65 65,-21.84 130.97,-6.49" id="path28"/>
    <path fill="#000000" fill-rule="evenodd" d="m827.891,480.469c-0.313,3.672 -17.5,31.172 -51.481,82.5c-34.031,51.679 -82.66,104.179 -146.019,157.5c-1.993,-1.989 -15.313,-18.008 -40,-48.008c-24.34,-30 -46.481,-61.332 -66.481,-93.981c1.988,3 15.149,16.989 39.488,41.989c24.332,25 48.512,43.511 72.5,55.511c3.981,-2.351 21.68,-23.32 53.012,-63.011c31.32,-39.34 52.809,-83.481 64.488,-132.5l74.493,0" id="path30"/>
    <path fill="#000000" fill-rule="evenodd" d="m1395.9,619.961c-8.32,-3.633 -14.18,-35.473 -17.5,-95.473c0.35,3.633 4.65,18.832 13.01,45.473c8.67,26.367 20.15,43.008 34.49,50l-30,0" id="path32"/>
    <path fill="#000000" fill-rule="evenodd" d="m1584.88,595.469c-9.33,-2.66 -21.13,-40.981 -35.47,-115l17.97,0c-0.97,2.34 0.67,16.332 5,41.992c4.69,25.66 16.84,50.508 36.53,74.527l-24.03,-1.519" id="path34"/>
    <path fill="#000000" fill-rule="evenodd" d="m1540.39,579.961c-3.32,-4.34 -4.34,-21.641 -3.01,-51.992c0,1.679 2.5,10.859 7.5,27.5c5,16.679 12.19,29.492 21.53,38.511c-6.68,-3.671 -15.36,-8.359 -26.02,-14.019" id="path36"/>
    <path fill="#000000" fill-rule="evenodd" d="m1167.89,1625.47c1.02,10.35 25.35,57.65 73.01,141.99c47.65,84.34 113.16,144.69 196.48,181.02c-3.98,7.34 -34.65,-4.65 -91.99,-36.02c-57.34,-31.64 -116.48,-127.3 -177.5,-286.99" id="path38"/>
    <path fill="#000000" fill-rule="evenodd" d="m1532.89,619.488c-4.34,3.321 -27.66,26.992 -70,70.981c-42.34,43.672 -77.34,87.5 -105,131.519c-5.66,6.992 -25,43.481 -58.01,109.492c-33.32,66.329 -47.81,120.32 -43.47,162c-1.02,1.32 0.31,10.5 3.98,27.5c3.36,16.99 14.34,32.34 33.01,46.01c6.68,4.65 18.16,20.31 34.49,46.99c9.02,0.98 23.52,12 43.52,33.01c-2.66,4.34 4.64,12.31 21.99,23.99c5,-0.67 17.15,11.32 36.48,36.01c6.02,-3.36 25.2,11.33 57.5,43.99c7.7,1.01 19.34,8.67 35,23c-0.31,4.65 8.87,9.34 27.5,13.99c7.03,-2.35 19.53,2.65 37.5,15c7.35,0.35 19.34,7.65 36.02,21.99c11.33,-5.31 31.01,2.34 58.98,23.01c2.03,-0.31 11.37,-0.16 28.01,0.51c16.68,1.01 29.34,4.49 38.01,10.5c7.34,-1.01 20.15,2.35 38.51,10c3.64,-10.66 27.66,-10.66 72,0c10.66,-1.99 27.34,0.16 50,6.49c1.64,0.35 11.83,0 30.5,-0.98c18.32,-1.01 34.14,-4.33 47.5,-10c-1.68,-7.03 12.82,-9.53 43.48,-7.5c5,-11.37 25.86,-16.83 62.5,-16.52c0,-11.99 19.34,-18.17 58.01,-18.48c6.68,-9.33 21.99,-18.87 46.01,-28.51c2,-11.33 21.64,-23.52 58.99,-36.49c8.67,-3.67 8.67,-21.52 0,-53.51c-7.66,-1.33 -16.33,-12.66 -26.02,-33.99c-9.65,-1.68 -20.15,-17.69 -31.48,-48.01c-8.67,-0.35 -14.49,-12.18 -17.5,-35.5c-6.02,-0.67 -16.49,-13.68 -31.49,-38.99c-11.01,-3.67 -16.17,-16.01 -15.5,-37.03c-9.34,2.7 -15.16,-5.98 -17.5,-25.98c-12,2.66 -20.51,-9.49 -25.51,-36.52c-9.34,-0.66 -18.01,-12.81 -26.02,-36.48c-11.99,3.32 -25.31,-11.492 -40,-44.5c-1.99,0.321 -11.13,-2.851 -27.5,-9.492c-15.97,-6.679 -26.48,-17.847 -31.48,-33.508c-1.33,-0.359 -7.66,-3.679 -18.99,-10c-11.36,-6.679 -17.85,-13.832 -19.53,-21.492c-10.31,2.313 -3.63,14.344 20,35.981c2.03,1.332 12.85,11.832 32.5,31.519c20,20 37.35,40.982 52.03,62.972c2.97,3.36 14.65,26.52 35,69.53c20.67,42.97 33.32,86.13 37.97,129.49c-5.97,10.98 -27.81,-3.67 -65.47,-44.02c-1.36,-2.66 -9.18,-22.15 -23.51,-58.48c-14.34,-36.32 -28.52,-74.68 -42.5,-115c-8.32,4.34 -15,42.5 -20,114.5c1.99,3.98 1.17,19.64 -2.5,46.99c-3.99,27.65 -24.18,43.01 -60.51,46.01c-10.31,-7.65 -57.34,-58.51 -140.98,-152.5c-83.67,-93.671 -143.16,-183.671 -178.51,-270c-6.02,-10.66 2.5,-33 25.51,-66.992c-7.35,-6.008 7.5,-5.508 44.49,1.492c4.33,-9.652 18.67,-7.859 43.01,5.5c-6.33,-11.011 -32.19,-29.179 -77.5,-54.492c-2.35,-0.347 -13.52,-5.508 -33.52,-15.508c-19.65,-10.351 -33.01,-23.511 -40,-39.492" id="path40"/>
    <path fill="#000000" fill-rule="evenodd" d="m1767.38,695.98c3.67,-2 16.37,3.981 38.01,18c21.68,13.68 30.16,46.489 25.51,98.481c-7.66,11.019 -3.99,27.5 11.01,49.527c2,-8.008 17.5,-15.656 46.49,-23.008c28.98,-7.648 58.83,32.821 89.49,121.489c3.36,1.332 14.34,14.019 33.01,38.011c18.67,23.98 23.51,50.5 14.49,79.49l19.49,108.51l-425.47,120l-295,-296.99l90.98,-191.01c1.99,-3.679 35.35,-21.492 100,-53.519c65,-31.992 149.02,-55 251.99,-68.981" id="path42"/>
    <path fill="#ffffff" fill-rule="evenodd" d="m1446.41,1287.46c-10.36,-13.63 -20,-23.48 -29.03,-29.49c9.69,-18.99 16.02,-43.17 19.03,-72.5c4.33,12.34 18.67,53.36 43,123.01c-13.67,-10.67 -24.68,-17.66 -33,-21.02" id="path44"/>
    <path fill="#ffffff" fill-rule="evenodd" d="m2012.38,1430.47c-20,1.33 -33.16,6.01 -39.49,14.02c-12.66,4.34 -31.99,6.64 -58.01,6.99c-7.3,-4.02 -22.97,-6.17 -46.99,-6.52c-0.98,0 -2.15,0 -3.48,0c-13.67,-6.33 -27.69,-9.49 -42.03,-9.49c-14.65,0.66 -26.48,3.01 -35.47,6.99c-11.01,-3.98 -20.86,-6.33 -29.53,-6.99c-7.3,-6.33 -28.47,-10.16 -63.47,-11.49c-21.02,-16.01 -40.86,-23.67 -59.5,-23c-12.34,-9.34 -23.36,-15.67 -33,-18.99c-23.36,-14.33 -40.51,-20.35 -51.53,-18.01c-3.98,-0.35 -6.48,-1.32 -7.5,-3c-5.31,-8.01 -11.99,-14.5 -20,-19.5c1.68,-8.36 1.68,-16.52 0,-24.49c2.35,4.34 11.37,5 27.03,1.99c15.32,-2.65 22.5,-33.67 21.49,-93c5.35,-10.36 -18.52,-38.99 -71.49,-86.02c1.64,-3.32 0.32,-17.15 -4.02,-41.48c-4.34,-23.99 -23.01,-39.5 -55.98,-46.49c-10.35,5 -19.02,-5.86 -26.01,-32.5c3.01,-1.37 16.17,-11.37 39.49,-30.002c23.01,-18.359 38.01,-37.34 45,-57.027c4.34,3.359 26.68,10 66.99,20c40.35,10 73.36,3.871 99.03,-18.481c1.99,-1.011 3,-8.671 3,-23c0.32,-14.339 -12.69,-28.32 -39.02,-42c-2.34,-0.66 -13.67,-8 -33.98,-21.992c-20.36,-14.019 -35.67,-29.687 -46.02,-47.027c1.68,1.019 9.34,0.199 23.01,-2.5c13.67,-2.66 22.85,-12.5 27.5,-29.492c1.99,1.332 10.51,2.191 25.51,2.5c15,0.351 25,-6.641 30,-20.981c1.64,2.313 9.49,5.473 23.47,9.492c13.67,4.34 23.87,-2.851 30.51,-21.519c1.33,1.68 7.66,3.668 19.02,6.019c11.33,2.649 18.83,-3.992 22.5,-20c2,1.68 9.14,5 21.49,10c12.34,4.641 19.18,1.008 20.51,-11.019c1.64,-0.66 6.64,4.527 15,15.508c8.67,10.66 10.82,30.152 6.48,58.511c-11.64,10.668 1.33,41.84 39.02,93.481c0.67,-6.992 10.67,-15.313 30,-25c18.99,-9.652 43.17,21.019 72.5,92.027c-3,-7.34 -18,-23.156 -45,-47.5c-27.03,-24.328 -48.36,-12.187 -64.02,36.492c-0.31,3 -2.15,18.161 -5.51,45.5c-2.97,27.35 -5.66,49.5 -7.97,66.49c0,3.01 4.81,13.83 14.5,32.5c9.64,18.36 24.33,25.51 43.98,21.52c4.02,0.98 19.69,-5.35 46.99,-19.02c27.03,-13.99 41.68,-42.66 44.03,-85.98c10.66,-2.34 16.17,28.17 16.48,91.49c-0.66,1.68 0.51,14.49 3.52,38.51c2.65,24.34 10.31,49.81 23,76.49c3.32,1.99 10.32,24.18 20.98,66.48c10.66,42.7 3.67,93.16 -20.98,151.52c-4.02,-1.01 -8,-1.32 -12.03,-1.01" id="path46"/>
    <path fill="#000000" fill-rule="evenodd" d="m1812.38,974.488c1.37,3.321 0.51,9.344 -2.5,17.973c-2.97,8.669 -15.15,0.199 -36.48,-25.473c-3.67,-3.008 -17.15,-18.867 -40.51,-47.5c-23.67,-28.668 -35.51,-52.687 -35.51,-72.027c-4.33,-11.992 7.7,-13.832 36.02,-5.473c3.67,1.992 4.84,9.813 3.51,23.481c5.98,1.011 12.5,-7.149 19.5,-24.489c-2,-7.66 1.48,-14.851 10.5,-21.492c-1.01,-12.027 8.64,2.813 28.99,44.492c0.66,2.352 5.15,15.668 13.51,40c7.97,24.34 14.34,45.821 18.99,64.5c0.66,1.989 0.82,6.321 0.51,13c0,6.641 -5.51,4.34 -16.53,-6.992" id="path48"/>
    <path fill="#000000" fill-rule="evenodd" d="m1713.4,1000.47c8.67,-4.341 21.17,6.52 37.5,32.5c-0.35,1.68 1.33,7.5 5,17.5c3.67,10 11.33,15.15 23.01,15.51c5.97,-2.66 15,3.82 26.99,19.49c8.32,4.69 3.16,22.34 -15.51,53.01c0.35,1.68 -8.83,8.67 -27.5,21.01c-18.32,11.99 -47.66,18.83 -88.01,20.47c-3.63,2.03 -21.13,0.66 -52.5,-3.98c-31.33,-4.34 -53.98,-23.68 -67.97,-58.01c-1.68,-0.98 -4.53,-11.64 -8.51,-31.99c-3.67,-20 2.15,-42.86 17.5,-68.52c-1.33,-8.32 23.16,-15.16 73.51,-20.472c6.33,-0.656 31.84,0.473 76.49,3.482" id="path50"/>
    <path fill="#000000" fill-rule="evenodd" d="m1776.41,1366.48c-3.36,1.33 -10,-1.68 -20,-9.02c-9.69,-7.3 -1.53,-26.99 24.49,-58.98c2.65,-1.68 15.51,-13.68 38.51,-36.02c23.32,-22.3 40,-45.82 50,-70.47c-0.66,-1.68 0.32,-6.17 2.97,-13.51c2.35,-7 10,-6.84 23.01,0.5c0,1.64 6.17,6.33 18.52,13.99c11.99,7.65 29.33,8.83 51.99,3.51c9.33,1.64 21.83,-13 37.5,-44.02l41.48,34.53l0,91.49c1.02,-7.66 -13.47,-17 -43.47,-28.01c-9.34,-4.34 -38.83,-4.65 -88.52,-0.98c-4.65,-2.03 -18.16,7.31 -40.51,27.97c-1.99,3.36 -13.98,17.34 -35.97,42.03c-22.35,24.34 -42.35,40 -60,46.99" id="path52"/>
    <path fill="#000000" fill-rule="evenodd" d="m1512.89,747.969c-0.31,-9.649 15.66,-15.981 48.01,-18.989c-4.34,-1.992 -2.5,-7.339 5.51,-16.011c3,-8.321 21.48,-9.649 55.5,-3.989c-5.35,-2.339 -0.19,-8.359 15.47,-18c4.34,-5 20,-3.519 47.03,4.489c-4.02,-3.668 0.16,-8.828 12.5,-15.508c1.33,-2.973 13.99,-0.981 37.97,6.019c-5.97,-5.671 3.36,-8.832 28.01,-9.5c4.69,-1.679 16.33,9.141 35,32.5l-66.99,2.5l-103.01,28.989l-61.48,19.492l-40.51,12.027l-13.01,-24.019" id="path54"/>
    <path fill="#ffffff" fill-rule="evenodd" d="m1733.91,734.961c1.64,0.66 4.84,-1.992 9.49,-7.973c4.65,-5.66 0.15,-17.687 -13.52,-36.008c-5,-1.679 -12.3,-1.679 -21.99,0c8.67,8.981 17.34,23.668 26.02,43.981" id="path56"/>
    <path fill="#ffffff" fill-rule="evenodd" d="m1777.38,727.461c1.68,0.66 4.18,-1.332 7.5,-5.981c3.36,-4.679 -1.64,-16.832 -15,-36.519c-5.31,-1.641 -12.97,-1.133 -22.97,1.519c9.65,8.321 19.81,22 30.47,40.981" id="path58"/>
    <path fill="#ffffff" fill-rule="evenodd" d="m1689.41,752.461c1.64,0.348 5,-2.813 10,-9.492c4.65,-6.989 -0.66,-20.16 -16.01,-39.489c-5,-4.652 -15,-5.671 -30,-3.011c11.33,5.66 23.32,23.011 36.01,51.992" id="path60"/>
    <path fill="#ffffff" fill-rule="evenodd" d="m1633.4,764.961c11.99,0.348 9.18,-15 -8.52,-45.981c-1.99,-3.671 -11.64,-5.152 -28.98,-4.492c1.68,1.332 7.85,8.321 18.51,20.981c10.98,12.34 17.31,22.191 18.99,29.492" id="path62"/>
    <path fill="#ffffff" fill-rule="evenodd" d="m1573.4,789.488c1.68,-0.347 4.49,-5.187 8.51,-14.527c3.99,-9.652 -1.17,-22.5 -15.5,-38.481c-5.67,-1.992 -14.34,-1.992 -26.02,0c10.35,5.321 21.33,23.008 33.01,53.008" id="path64"/>
    <path fill="#ffffff" fill-rule="evenodd" d="m1327.38,480.469l16.53,0c13.67,37.34 -13.83,106.172 -82.5,206.519c-65.36,89.34 -97.66,157.66 -97,205c0.67,46.992 7.15,75.672 19.5,85.981c-5.36,1.992 -10.36,4.332 -15,6.992c-14.34,-13.981 -21.33,-45.981 -21.02,-95.981c0.35,-50 33.83,-120.66 100.51,-211.992c66.68,-98.008 93.01,-163.508 78.98,-196.519" id="path66"/>
    <path fill="#000000" fill-rule="evenodd" d="m1410.39,1475.98c0.66,4.33 22.19,33.51 64.49,87.5c42.35,54.33 101.37,107.5 177.03,159.49c75.32,52.34 163.48,77.65 264.5,76.01l-18.52,13.01l-180,0l-250.98,-110.51l-119.53,-155.5l-3.47,-73.52l66.48,3.52" id="path68"/>
    <path fill="#ffffff" fill-rule="evenodd" d="m1483.91,1199.49c-18.01,-77.69 -52.35,-138.36 -103.01,-182.03c-50.67,-43.319 -106.17,-59.651 -166.49,-48.98c-59.68,14.641 -103.86,51.99 -132.5,111.99c-29.02,60.35 -36.01,129.69 -21.01,208.01c18.01,77.65 52.34,138.16 103.01,181.48c50.66,43.67 106.17,60.2 166.48,49.53c59.34,-14.69 103.52,-52.19 132.5,-112.5c29.02,-60 36.02,-129.18 21.02,-207.5" id="path70"/>
    <path fill="#000000" fill-rule="evenodd" d="m1477.89,1200.47c0,0.35 1.02,6.01 3.01,16.99c1.01,5.66 1.83,12.5 2.5,20.51c1.01,8.36 1.48,17.85 1.48,28.51c0,5 0,10.51 0,16.49c-0.31,5.66 -0.66,11.68 -0.97,18.01c-0.36,6.68 -1.18,13.32 -2.5,20c-0.67,6.68 -1.84,13.67 -3.52,21.01c-5.66,29.34 -18.16,59.14 -37.5,89.49c-2.66,3.68 -5.16,7.35 -7.5,10.98c-3.01,3.67 -5.98,7.19 -8.98,10.51c-6.02,6.99 -12.66,13.67 -20,20c-3.68,3.01 -7.5,6.01 -11.53,9.02c-3.63,2.97 -7.65,5.67 -11.99,7.97c-4.34,2.34 -8.48,4.69 -12.5,7.03c-4.65,1.99 -9.14,3.99 -13.48,5.98c-40,14.69 -81.01,13.67 -123,-3.01c-41.02,-17.97 -75.36,-46.48 -103.01,-85.47l-5.51,-7.03l-4.49,-7.5c-3.01,-4.65 -6.02,-9.49 -8.99,-14.49c-6.01,-10.67 -11.17,-21.33 -15.5,-31.99c-2.35,-5.36 -4.69,-10.82 -7,-16.49l-5.5,-16.52c-3.36,-11.33 -6.33,-22.81 -9.03,-34.49c-5,-23.32 -7.65,-46.84 -7.97,-70.51c0,-11.99 0.47,-23.83 1.49,-35.51c0.66,-5.66 1.48,-11.48 2.5,-17.5l1.01,-8.48l2,-8.51c10,-46.64 30.15,-86.49 60.5,-119.49c15,-16.33 32,-28.832 50.98,-37.5c4.69,-2 9.49,-3.992 14.49,-6.019c5,-1.332 10.2,-2.813 15.51,-4.492l3.01,-0.981l3.98,-0.508l7.5,-1.011c5,-1.328 10,-1.989 15,-1.989c5,0 10,0 15,0c5,0.352 9.85,0.821 14.53,1.481c5,0.348 9.81,1.168 14.5,2.5c4.64,1.019 9.33,2.187 13.98,3.519c9.02,2.649 17.66,6.008 26.02,10c4.33,1.989 8.47,3.981 12.5,6.008c3.67,2.313 7.5,4.652 11.48,6.992c30,20 53.52,42.5 70.51,67.5c4.33,5.67 8.16,11.49 11.48,17.5c4.03,5.67 7.5,11.33 10.51,17c2.66,5.66 5.51,11.01 8.52,16.01c1.99,5.31 4.14,10.47 6.48,15.47c4.02,9.69 7.19,18.36 9.49,26.02c3.01,7.65 5,14.33 6.02,20c2.65,10.35 4.18,16.01 4.49,16.99m11.02,-2.5c0,-0.31 -1.33,-5.98 -4.03,-16.99c-1.33,-5.67 -3.32,-12.66 -5.97,-21.02c-2.35,-7.97 -5.67,-17.15 -10,-27.5c-2,-5 -4.18,-10.16 -6.53,-15.47c-2.97,-5.66 -5.97,-11.37 -8.98,-17.03c-2.66,-5.98 -6.02,-11.99 -10,-17.97c-3.67,-6.01 -7.85,-12.19 -12.5,-18.51c-17.35,-25.67 -41.68,-49.5 -73.01,-71.492c-3.98,-2.34 -8.01,-4.84 -11.99,-7.5c-4.34,-2.34 -8.67,-4.687 -13.01,-7.027c-8.67,-4.34 -18.01,-8.16 -28.01,-11.481c-5,-1.679 -10,-3.011 -15,-3.992c-5,-1.679 -10.15,-2.847 -15.47,-3.508c-5.35,-0.671 -10.66,-1.332 -16.01,-2c-5.67,0 -11.17,0 -16.49,0c-5.66,0 -11.36,0.508 -17.03,1.489l-7.97,1.011l-4.53,0.508c-1.99,0.672 -3.47,0.981 -4.49,0.981c-5.31,1.679 -10.51,3.16 -15.51,4.492c-5.66,1.68 -11.13,3.871 -16.48,6.519c-21.99,9.34 -41.68,22.661 -58.99,40c-34.33,35.67 -57.03,78.68 -68,128.99l-2,9.49l-1.52,9.02c-0.98,6.33 -1.84,12.5 -2.5,18.48c-1.33,12.7 -1.99,25.35 -1.99,38.01c0,25.35 2.5,50.51 7.5,75.51l5,18c1.33,5.98 3.01,12 5,18.01l6.48,18.48c2.35,6.01 4.69,11.83 7.03,17.5c5.32,11.68 10.98,23.01 17,34.02c3.32,5.31 6.64,10.47 10,15.47l5,8.01l5.97,7.5c30,41.99 68.01,72.34 114.03,91.01c47.65,17.35 93,17.35 135.97,0c5,-2.34 10.2,-4.68 15.51,-6.99c4.69,-2.69 9.18,-5.35 13.52,-8.01c5,-2.65 9.49,-5.86 13.47,-9.49c4.03,-3.01 8.01,-6.17 12.03,-9.53c7.66,-6.99 14.65,-14.34 20.98,-21.99c3.01,-3.99 6.02,-7.81 9.02,-11.49c2.66,-4.02 5.32,-8 7.97,-11.99c19.69,-32.69 32.35,-64.33 38.01,-95c1.68,-7.34 2.85,-14.69 3.52,-22.03c1.32,-6.99 2.14,-13.83 2.5,-20.47c0.31,-6.37 0.66,-12.5 0.97,-18.51c0,-6.33 -0.15,-12.15 -0.47,-17.5c0,-11.02 -0.66,-20.67 -2.03,-28.99c-0.66,-8.36 -1.48,-15.51 -2.5,-21.52l-3.47,-17.5" id="path72"/>
    <path fill="#000000" fill-rule="evenodd" d="m1363.91,1216.99c-21.33,-132.03 -79.85,-199.84 -175.51,-203.51c-43.99,5.66 -78.67,30.35 -103.99,73.98c-25.35,44.02 -35.66,96.84 -31.01,158.52c21.33,132.34 79.84,200.35 175.51,203.98c43.98,-5.66 78.67,-30.31 103.98,-73.98c25.35,-43.99 35.66,-97 31.02,-158.99" id="path74"/>
    <path fill="#ffffff" fill-rule="evenodd" d="m1334.41,1221.99c3.32,113.99 -35,180.16 -115,198.48c-25,1.99 -48.36,-4.65 -70,-20c13.99,5.35 28.48,7.5 43.48,6.52c80,-18.36 118.52,-84.69 115.51,-199.02c-8.99,-70.98 -35.82,-122.35 -80.51,-153.99c59.34,25 94.84,80.98 106.52,168.01" id="path76"/>
    <path fill="#000000" fill-rule="evenodd" d="m1953.4,1833.48c8.67,2.65 -0.51,17.65 -27.5,45c-27.35,27.65 -124.85,51.32 -292.5,71.01c-3.67,4.65 -43.01,-22.5 -118.01,-81.52c-75.31,-59.34 -165,-178.32 -268.98,-356.99l97.5,-38.52c0.31,6.02 23.98,43.16 70.97,111.52c47.35,68.68 116.37,132.66 207.03,192c90.32,59.64 200.82,78.82 331.49,57.5" id="path78"/>
    <path fill="#000000" fill-rule="evenodd" d="m1378.4,1160.98c-43.67,-97.66 -90.67,-150.36 -141.02,-158.01c-50.66,-7.349 -77.97,-8.009 -81.99,-1.99c47.34,-32.351 101.02,-30.671 161.02,5c60.31,35.35 103.16,82.5 128.47,141.48c-23.63,2.7 -45.82,7.19 -66.48,13.52" id="path80"/>
    <path fill="#ffffff" fill-rule="evenodd" d="m1591.41,1771.48l-121.53,53.01l-16.48,-17.5l114.49,-55l23.52,19.49" id="path82"/>
    <path fill="#ffffff" fill-rule="evenodd" d="m1371.91,1484.49c2.66,7.66 37.82,47.81 105.47,120.47c67.35,72.7 150.51,131.84 249.53,177.5c98.99,45.66 197.15,32.03 294.5,-40.98c2.34,5.67 -8.83,28.68 -33.52,68.99c-24.34,40.35 -76.64,65.51 -156.99,75.51c-4.65,7.65 -54.18,-10 -148.52,-53.01c-94.33,-42.66 -205.97,-157.15 -335,-343.48l24.53,-5" id="path84"/>
    <path fill="#000000" fill-rule="evenodd" d="m1119.41,1398.48c0.98,6.99 21.14,23.32 60.47,48.98c39.34,25.66 92.5,19.02 159.53,-20c1.64,1.37 13.64,4.53 35.98,9.53c22.34,5.31 44.34,3.83 66.02,-4.53c13.67,-0.98 14.84,4.18 3.47,15.51l-62.5,50.51l-66.48,13.98c-1.68,0.35 -9.65,1.02 -23.99,2.03c-14.02,0.67 -23.51,-0.19 -28.51,-2.5c-5,-3.01 -15.67,-6.01 -31.99,-9.02c-16.33,-3.01 -25.67,-4.65 -28.01,-5c-2.35,-1.33 -11.49,-7.15 -27.5,-17.5c-16.02,-10.67 -24.85,-18.48 -26.49,-23.48c-2.34,-5 -10.66,-13.87 -25,-26.52c-14.33,-12.66 -16.01,-23.32 -5,-31.99" id="path86"/>
    <path fill="none" stroke="#000000" stroke-width="10" stroke-linecap="round" stroke-linejoin="round" stroke-miterlimit="10" d="m1410.9,1130.98c3.16,7.65 13.51,46.68 30,120c11.48,71.68 -11.84,143.98 -70,220" id="path88"/>
    <path fill="#000000" fill-rule="evenodd" d="m1361.91,1490.47c0.98,4.69 27.97,37.85 80.98,99.49c26.02,29.69 57.34,60.51 94.02,92.5c37,32.03 78.17,61.17 123.48,87.5c22.66,12.34 46.02,23.16 70,32.5c24.02,8.67 48.01,15 71.99,19.02c24.34,3.68 47.7,4.65 70,3.01c11.37,-0.66 22.19,-2.34 32.5,-5c10,-2.03 19.69,-4.53 29.03,-7.5c18.67,-6.01 34.84,-13.01 48.47,-21.01c14.03,-8.01 25,-16.18 33.01,-24.5c8.01,-8.36 13.36,-15.15 16.02,-20.5c3,-5.36 4.49,-8.01 4.49,-8.01c0,0 -1.68,2.5 -5,7.5c-3.32,5 -9.18,11.33 -17.5,19.02c-8.32,7.31 -19.49,14.65 -33.52,21.99c-13.63,7 -29.65,13.17 -47.97,18.48c-18.36,5.66 -38.36,9.53 -60,11.52c-21.68,1.64 -44.33,0.67 -68,-3c-47.66,-8.68 -94.03,-25.82 -139.03,-51.49c-44.65,-25.66 -85.15,-54.69 -121.48,-87.03c-36.33,-31.99 -67.5,-62.3 -93.52,-90.98c-26.33,-28.67 -46.33,-52.18 -60,-70.5c-13.98,-18.01 -21.13,-27.35 -21.48,-28.01l-6.49,5" id="path90"/>
    <path fill="#000000" fill-rule="evenodd" d="m447.891,480.469c-0.981,10 18.519,66.992 58.519,171.011c39.641,103.989 105.82,194.852 198.469,272.5c-3.981,0 -37.969,-17.179 -101.988,-51.519c-63.981,-33.981 -132.5,-83.832 -205.512,-149.492c-72.969,-65.981 -125.309,-146.84 -156.988,-242.5l207.5,0" id="path92"/>
    <path fill="#000000" fill-rule="evenodd" d="m447.891,480.469c-2.34,6.679 23.007,58.011 76.019,154.019c53.32,95.981 147.141,197.313 281.481,303.992c-7.661,4.641 -41.172,-0.16 -100.512,-14.5c-2.301,-1.679 -15.309,-10.859 -38.981,-27.5c-23.988,-16.679 -45,-31.32 -63.007,-44.019c-5,-2.973 -33.012,-27.973 -83.981,-75c-50.672,-46.641 -94.34,-96.481 -131.019,-149.492l22.5,-143.481c0.66,2.973 5.16,8.633 13.519,16.992c8.32,8.008 16.32,0.981 23.981,-21.011" id="path94"/>
    <path fill="#002a46" fill-rule="nonzero" d="m5.39063,258.59l2.03125,53.75c14.13672,-1.051 28.47652,-1.559 42.96872,-1.559c38.3203,0 75.6604,2.27 112.0314,6.879l-4.531,-22.5c-1.371,-6.25 -2.661,-12.781 -3.911,-19.539c-1.25,-6.672 -2.421,-12.461 -3.429,-17.34c-6.25,-1.679 -12.582,-2.89 -18.91,-3.59c-6.25,-0.632 -12.422,-1.531 -18.442,-2.66c-4.918,-21.051 -9.801,-47.152 -14.6795,-78.281c-10.9414,-68.98 -18.5976,-119.1406 -22.9687,-150.4687l-75.47267,-12.0313c22.07027,103.949 36.95317,185.309 44.69137,244.059c-6.5703,0.82 -13.1289,1.101 -19.6914,0.781c-6.5586,-0.231 -13.1289,0.629 -19.68747,2.5zm112.73037,-247.6486c29.258,143.8286 47.039,246.3986 53.289,307.6486c26.25,-2.18 48.942,-3.281 68.121,-3.281c-13.441,-56.868 -22.34,-96.829 -26.722,-119.84l41.57,5c3.742,19.691 7.18,38.832 10.312,57.5c3.2,18.75 7.258,37.972 12.188,57.652c10.93,1.957 22.531,3.438 34.84,4.379c12.261,0.941 20.781,1.559 25.472,1.879l6.868,0.781c-13.36,-43.75 -26.481,-105.16 -39.368,-184.219c-6.25,-35.55 -11.992,-71.8824 -17.191,-109.0621l-65.621,-7.3476c3.512,16.6406 6.711,32.3476 9.531,47.0273c2.891,14.7695 5.82,29.4219 8.75,43.9104c2.891,14.57 5.309,27.031 7.18,37.34l-41.09,-3.59c-6.25,-34.809 -14.02,-75.5901 -23.281,-122.3401l-64.848,-13.4375z" id="path96"/>
    <path fill="#002a46" fill-rule="nonzero" d="m303.52,11.25l55,298.59l132.808,11.57c-1.879,-6.25 -3.519,-12.351 -4.848,-18.289c-1.359,-5.851 -2.769,-11.672 -4.21,-17.5c-1.372,-5.742 -2.43,-10.781 -3.129,-15.152c-8.243,-0.739 -19.493,-1.09 -33.75,-1.09l-28.282,0l-14.687,-75.469c15,0.699 27.539,1.25 37.656,1.559c10.082,0.312 16.641,0.551 19.692,0.781c-1.059,-7.93 -2.11,-15.629 -3.129,-23.129c-0.942,-7.5 -2.11,-15.23 -3.442,-23.121c-3.039,-0.309 -7.648,-0.59 -13.898,-0.781c-6.25,-0.117 -12.821,-0.309 -19.692,-0.629c-6.879,-0.231 -14.531,-0.43 -22.968,-0.621l-14.371,-77.6604l61.089,9.8516l-4.058,-47.9688l-135.781,-20.9414z" id="path98"/>
    <path fill="#002a46" fill-rule="nonzero" d="m600.82,62.6602c19.141,12.2617 36.801,37.8088 52.969,76.5588c9.063,21.64 15.039,39.84 17.973,54.531c3.008,14.77 4.527,26.41 4.527,34.84c0,8.519 -2.891,15.711 -8.59,21.57c-5.75,5.93 -14.769,8.899 -27.039,8.899c-4.68,-23.547 -10,-48.86 -15.93,-75.938c-10.121,-45.93 -18.089,-86.0897 -23.91,-120.4608zm-73.281,-50.9414c29.762,150.0822 47.973,249.2222 54.531,297.3402c11.95,2.191 24.102,4.3 36.41,6.41c12.258,2.07 25.469,3.121 39.532,3.121c14.136,0 26.476,-2.418 37.027,-7.18c10.512,-4.808 19.063,-11.488 25.621,-20c12.578,-16.18 18.91,-37.89 18.91,-65.16c0,-30.121 -7.968,-61.84 -23.91,-95.16c-16.68,-34.6798 -38.551,-62.9689 -65.621,-84.84c-30.859,-24.3711 -63.91,-36.55859 -99.219,-36.55859c-6.05,0 -13.832,0.69919 -23.281,2.02739z" id="path100"/>
    <path fill="#002a46" fill-rule="nonzero" d="m787.93,83.4414l-16.879,-60.1601c-6.25,-0.8594 -13.551,-1.8321 -21.871,-2.9727c-8.36,-1.0469 -16.641,-2.1094 -24.84,-3.1172c-8.25,-0.9414 -16.719,-1.9609 -25.469,-2.9726c11.25,37.1914 20.777,68.5898 28.59,94.2222c7.809,25.7 14.141,46.868 19.059,63.438c4.89,16.562 9.73,32.961 14.531,49.211c4.769,16.25 9.418,31.961 13.91,47.191c4.57,15.199 8.629,29.059 12.187,41.559c50.512,3.64 89.063,8.012 115.622,13.129c-2.5,-26.989 -4.532,-58.989 -6.09,-95.938c-3.668,-73.551 -6.68,-141.3708 -9.059,-203.4412c-8.242,-1.3593 -16.25,-2.6093 -24.07,-3.75c-7.813,-1.0507 -15.891,-2.2617 -24.211,-3.5898c-8.36,-1.3711 -15.899,-2.6211 -22.66,-3.75c3.011,26.25 5.621,49.8789 7.808,70.9414l-36.558,0zm46.398,41.8676l30.32,2.031c0,1.64 0.191,4.461 0.621,8.441c0.391,3.949 0.859,8.52 1.41,13.75c2.18,29.258 4.527,56.449 7.027,81.559l2.813,36.57l-6.563,-0.469l-35.628,-141.882z" id="path102"/>
    <path fill="#002a46" fill-rule="nonzero" d="m1013.48,316.09c-31.179,-158.668 -50.16,-257.34 -57.031,-296.09c-7.621,0 -20.898,-1.25 -39.847,-3.75c-18.872,-2.5 -28.512,-3.8711 -29.063,-4.0586c8.75,31.6367 16.801,66.25 24.223,103.7496c16.949,85.508 28.976,148.789 36.09,189.84l65.628,10.309z" id="path104"/>
    <path fill="#002a46" fill-rule="nonzero" d="m1054.06,70.7813c10.39,0.8203 24.92,1.25 43.6,1.25c0.5,-10.6211 1.29,-19.3321 2.34,-26.0899c1.13,-6.6797 1.91,-11.5625 2.34,-14.6914c0.39,-3.1289 0.71,-5.2695 0.94,-6.4102l-12.66,0.4688c-28.74,0 -57.34,-2.6094 -85.78,-7.8086c-9.289,-1.9883 -17.731,-4.1797 -25.309,-6.5586c6.559,50.5078 15.199,103.6286 25.939,159.3676c10.82,55.82 20.04,102.742 27.65,140.781l73.91,9.851c-25.43,-107.742 -40.27,-173.871 -44.53,-198.441c-4.3,-24.6094 -7.11,-41.8398 -8.44,-51.7187z" id="path106"/>
    <path fill="#002a46" fill-rule="nonzero" d="m1189.53,191.41c8.95,22.379 23.67,63.942 44.22,124.68l65.16,-14.371c-15,-30.629 -28.52,-58.399 -40.47,-83.278l-26.25,-54.062c-5.24,-10.938 -10.39,-21.649 -15.47,-32.039c-5,-10.43 -9.61,-20.149 -13.75,-29.219c-4.06,-20.7421 -10.47,-46.1718 -19.22,-76.2421l-71.87,-9.0703l19.37,84.5314c0,33.949 -1.41,71.41 -4.22,112.351c-2.73,41.008 -4.33,64.719 -4.84,71.09l-0.78,8.91l68.43,26.25l0,-72.972l-0.31,-40.938l0,-15.621z" id="path108"/>
    <path fill="#002a46" fill-rule="nonzero" d="m1513.01,115.16c0,-10.238 -2.42,-20.2811 -7.19,-30.16c-4.69,-9.8008 -11.09,-18.6719 -19.22,-26.5586c-8.05,-7.9297 -17.46,-14.9219 -28.28,-20.9414c-10.86,-5.9414 -22.27,-11.0195 -34.22,-15.1602c-23.55,-8.2382 -47.62,-12.3398 -72.19,-12.3398c-10.43,0 -20.15,0.8594 -29.21,2.5c13.43,48.9492 24.1,98.32 32.03,148.121c7.89,49.77 15.54,99.848 22.97,150.16c38.32,7.891 69.6,11.879 93.9,11.879c28.75,0 48.75,-9.851 60,-29.539c4.38,-7.422 6.56,-16.519 6.56,-27.34c0,-10.742 -1.71,-20.781 -5.15,-30.16c-3.44,-9.293 -7.93,-17.73 -13.44,-25.312c-11.17,-15.309 -24.53,-25.899 -40.16,-31.719c22.39,-13.668 33.6,-34.801 33.6,-63.43zm-107.81,-20.16c24.88,2.6992 42.38,9.691 52.5,20.941c4.37,4.879 6.56,10.348 6.56,16.399c0,6.019 -1.33,10.711 -3.91,14.07c-2.62,3.43 -5.94,6.25 -10,8.43c-8.24,4.379 -17.15,6.57 -26.72,6.57l-3.59,0c-1.17,0 -2.27,-0.121 -3.28,-0.32c-1.17,-6.871 -2.19,-12.93 -3.13,-18.121c-0.93,-5.239 -1.83,-10.239 -2.65,-15c-0.86,-4.809 -1.72,-9.809 -2.66,-15c-0.94,-5.117 -1.99,-11.09 -3.12,-17.969zm129.21,137.82c34.14,7.692 51.25,17.11 51.25,28.281c0,10.7 -8.75,17.418 -26.25,20.149c-4.37,0.82 -8.24,1.25 -11.56,1.25l-4.53,0c-0.55,-3.039 -1.17,-6.68 -1.88,-10.93c-0.62,-4.18 -1.36,-8.558 -2.18,-13.129c-0.86,-4.492 -1.72,-9.019 -2.66,-13.59c-0.94,-4.492 -1.68,-8.519 -2.19,-12.031z" id="path110"/>
    <path fill="#002a46" fill-rule="nonzero" d="m1582.81,83.4414l-16.87,-60.1601c-6.25,-0.8594 -13.56,-1.8321 -21.88,-2.9727c-8.36,-1.0469 -16.64,-2.1094 -24.84,-3.1172c-8.24,-0.9414 -16.72,-1.9609 -25.47,-2.9726c11.25,37.1914 20.78,68.5898 28.59,94.2222c7.82,25.7 14.14,46.868 19.07,63.438c4.88,16.562 9.72,32.961 14.53,49.211c4.76,16.25 9.41,31.961 13.9,47.191c4.57,15.199 8.64,29.059 12.19,41.559c50.51,3.64 89.06,8.012 115.63,13.129c-2.5,-26.989 -4.54,-58.989 -6.1,-95.938c-3.67,-73.551 -6.68,-141.3708 -9.06,-203.4412c-8.24,-1.3593 -16.25,-2.6093 -24.06,-3.75c-7.82,-1.0507 -15.9,-2.2617 -24.22,-3.5898c-8.36,-1.3711 -15.9,-2.6211 -22.66,-3.75c3.01,26.25 5.63,49.8789 7.82,70.9414l-36.57,0zm9.85,41.8676l30.31,2.031c0,1.64 0.19,4.461 0.62,8.441c0.39,3.949 0.86,8.52 1.41,13.75c2.19,29.258 4.53,56.449 7.03,81.559l2.81,36.57l-6.56,-0.469l-35.62,-141.882z" id="path112"/>
    <path fill="#002a46" fill-rule="nonzero" d="m1751.02,319.379l11.87,0c5.39,0 20.7,0.5 45.94,1.562c3.83,-19.691 7.38,-37.972 10.62,-54.851c8.75,-48.75 14.77,-80.11 18.13,-94.059c1.01,5.821 2.22,12.379 3.59,19.688c1.33,7.383 2.85,15.082 4.53,23.121c1.64,8.129 3.32,16.449 5,25c2.7,13.32 8.28,40.238 16.72,80.781l51.25,6.098c-29.8,-138.129 -48.4,-237.2698 -55.78,-297.3401c-3.24,0 -14.49,-2.3476 -33.75,-7.0391c-19.3,-4.6093 -30.86,-7.5703 -34.69,-8.8984c-5.54,74.8789 -11.56,127.8866 -18.12,159.0586c-0.74,-5.23 -1.84,-11.328 -3.28,-18.281c-1.37,-6.989 -2.74,-14.449 -4.07,-22.34c-5.23,-29.809 -12.03,-65.7501 -20.46,-107.8204l-61.57,-14.36719c31.14,148.42959 49.3,251.75759 54.53,309.99959c3.83,-0.242 7.04,-0.312 9.54,-0.312z" id="path114"/>
    <path fill="#002a46" fill-rule="nonzero" d="m2056.17,242.191c-4.69,20.821 -12.77,31.25 -24.22,31.25c-7.11,0 -14.84,-5 -23.28,-15c-8.36,-10 -16.17,-22.781 -23.44,-38.281c-16.79,-36.488 -25.7,-72.191 -26.71,-107.191c0,-17.5002 2.57,-29.9573 7.81,-37.3479c5.19,-7.3008 11.17,-10.9297 17.97,-10.9297c6.87,0 13.28,1.3984 19.22,4.2188c6.01,2.8906 11.4,6.789 16.09,11.7109c10.94,11.4492 16.64,24.9999 17.19,40.6289l-44.69,-6.559l7.81,41.399c38.52,4.89 73.13,10.082 103.75,15.629c-1.87,-28.438 -7.5,-53.278 -16.87,-74.5276c-9.3,-21.1719 -20.43,-38.8711 -33.44,-53.1328c-12.93,-14.1797 -26.95,-24.8398 -42.03,-32.0273c-15,-7.07036 -28.44,-10.62114 -40.31,-10.62114c-11.88,0 -22.5,2.30078 -31.88,6.87109c-9.3,4.44925 -17.3,11.32815 -24.06,20.62895c-14.81,19.6796 -22.19,47.3398 -22.19,82.9688c0,35.699 5.16,66.949 15.47,93.742c10.39,26.879 23.48,49.258 39.22,67.188c15.7,17.89 32.65,31.25 50.78,40c18.2,8.75 34.06,13.132 47.5,13.132c13.44,0 24.22,-1.992 32.34,-5.941c8.21,-3.98 14.92,-9.219 20.16,-15.781c10.39,-12.617 15.62,-29.61 15.62,-50.938l-57.81,-11.09z" id="path116"/>
    <path fill="#002a46" fill-rule="nonzero" d="m2088.52,11.25l55,298.59l132.81,11.57c-1.88,-6.25 -3.52,-12.351 -4.85,-18.289c-1.36,-5.851 -2.77,-11.672 -4.21,-17.5c-1.37,-5.742 -2.43,-10.781 -3.13,-15.152c-8.24,-0.739 -19.49,-1.09 -33.75,-1.09l-28.28,0l-14.69,-75.469c15,0.699 27.54,1.25 37.66,1.559c10.08,0.312 16.64,0.551 19.69,0.781c-1.06,-7.93 -2.11,-15.629 -3.13,-23.129c-0.94,-7.5 -2.11,-15.23 -3.44,-23.121c-3.04,-0.309 -7.65,-0.59 -13.9,-0.781c-6.25,-0.117 -12.82,-0.309 -19.69,-0.629c-6.88,-0.231 -14.53,-0.43 -22.97,-0.621l-14.37,-77.6604l61.09,9.8516l-4.06,-47.9688l-135.78,-20.9414z" id="path118"/>
    <path fill="#002a46" fill-rule="nonzero" d="m2356.76,18.2813c-21.06,69.1406 -31.99,108.6677 -32.81,118.5977l-5.32,-1.719c-2.18,-12.621 -5.47,-30.121 -9.84,-52.4998c-4.38,-22.4297 -7.81,-40.3204 -10.31,-53.75l-67.97,-17.6602c28.44,137.578 45.78,235.23 52.03,292.969c31.64,9.761 67.19,14.691 106.56,14.691c29.57,0 47.07,-10.281 52.5,-30.789c1.64,-6.242 2.5,-14.062 2.5,-23.43c0,-9.3 -1.95,-19.339 -5.78,-30.16c-3.75,-10.742 -8.91,-21.011 -15.47,-30.781c-13.75,-20 -30.58,-35.309 -50.47,-45.941c10.63,-23.039 20.08,-44.758 28.44,-65.1488c8.32,-20.3204 15.35,-37.461 21.09,-51.4102l-65.15,-22.9687zm4.06,242.3397l-17.97,-0.312l-13.59,-66.868c10.94,1.008 24.72,8.008 41.4,20.938c17.27,13.121 25.94,23.902 25.94,32.34c0,7.89 -7.58,12.422 -22.65,13.59c-4.38,0.203 -8.75,0.312 -13.13,0.312z" id="path120"/>
   </g>
  </g>
 </g>
</svg>