<?xml version="1.0" encoding="UTF-8" standalone="no"?>
<svg
   xmlns:dc="http://purl.org/dc/elements/1.1/"
   xmlns:cc="http://creativecommons.org/ns#"
   xmlns:rdf="http://www.w3.org/1999/02/22-rdf-syntax-ns#"
   xmlns:svg="http://www.w3.org/2000/svg"
   xmlns="http://www.w3.org/2000/svg"
   viewBox="0 0 278.66666 210.66667"
   height="210.66667"
   width="278.66666"
   xml:space="preserve"
   id="svg2"
   version="1.1"><metadata
     id="metadata8"><rdf:RDF><cc:Work
         rdf:about=""><dc:format>image/svg+xml</dc:format><dc:type
           rdf:resource="http://purl.org/dc/dcmitype/StillImage" /></cc:Work></rdf:RDF></metadata><defs
     id="defs6" /><g
     transform="matrix(1.3333333,0,0,-1.3333333,0,210.66667)"
     id="g10"><g
       transform="scale(0.1)"
       id="g12"><path
         id="path14"
         style="fill:#262161;fill-opacity:1;fill-rule:evenodd;stroke:none"
         d="m 2040.51,948.98 c -1.99,1.641 -13.32,13.008 -33.99,33.989 -20.66,21.011 -38.16,42.341 -52.5,64.021 -6.36,7.66 -20.66,19.65 -43,35.98 1.64,1.68 -0.51,17.19 -6.53,46.52 -6.33,28.99 -25,61.64 -55.97,97.97 -2.35,1.68 -13.68,12.85 -34.03,33.52 -20.31,20.66 -35.66,41.17 -45.97,61.48 4.64,10.66 -20,40.86 -74.03,90.51 -1.64,2.65 -12.81,16.01 -33.47,40 -21.02,24.02 -41.68,42.34 -62,55 -10.35,2.34 -27.03,7.85 -50,16.52 -7.03,1.33 -23.36,12.15 -49.02,32.5 -1.64,7.66 -18.32,12.31 -50,13.99 -10.31,-6.68 -32.5,-6.33 -66.48,1.01 2.34,10.67 -31.18,10.67 -100.51,0 -5.67,1.33 -41.33,-14.02 -106.99,-46.01 -66.02,-32 -128.52,-88.83 -187.5,-170.51 -6.68,-7.66 -34.5,-51.33 -83.52,-130.98 -48.672,-80 -77.66,-151.37 -86.988,-214.02 0.347,-2.35 -0.352,-15.822 -1.992,-40.509 C 814.34,945.309 809.691,923.32 801.988,903.98 798.359,899.648 781.02,864.301 750,797.969 719.02,731.328 695.859,658.828 680.512,580.469 675.16,575.82 639.18,556.641 572.5,522.969 564.18,528.98 527.852,505.469 463.52,452.461 459.18,453.48 425.352,440.469 361.988,413.48 298.672,386.48 230.512,339.961 157.5,273.98 84.8398,207.969 32.3398,116.801 0,0.46875 h 1669.02 c -3.67,37.65235 -17.03,78.16015 -40,121.51925 -2.03,2.313 -13.16,13.321 -33.51,32.973 -20.67,20 -39.18,34.019 -55.51,42.027 9.02,4.34 53.67,33.832 134.02,88.481 80,54.691 141.49,109.179 184.5,163.511 6.99,10.321 39.64,60.821 98,151.489 57.97,90.66 99.34,160.511 123.99,209.492 2.34,2.027 3.98,17.848 5,47.5 0.66,29.687 -14.34,60.199 -45,91.519" /><path
         id="path16"
         style="fill:#000000;fill-opacity:1;fill-rule:evenodd;stroke:none"
         d="m 1324.02,114.961 c -4.68,1.68 -34.68,26.168 -90,73.519 -55.66,47.34 -109.33,106.68 -161.01,178 -51.99,71.329 -74.651,143.829 -68.01,217.5 -8.012,10.321 5.86,42.149 41.52,95.508 3.64,-6.008 15.47,0.981 35.47,20.981 -1.64,-0.309 -6.99,2.34 -15.97,8.011 -9.03,5.661 -11.18,16.68 -6.53,33 -8.32,-0.66 -31.83,-22.5 -70.47,-65.5 -38.668,-43.011 -43,-102.5 -13,-178.519 -5,0 -13.829,18.519 -26.532,55.508 -12.648,36.992 1.532,93.011 42.5,168.011 1.684,1.989 10.672,21.168 27.032,57.5 16.33,36.68 30.47,79.489 42.5,128.508 0.67,10.672 10.32,60.473 28.99,149.492 18.32,88.68 40.51,152 66.48,190 -3.63,1.33 -21.83,-14.68 -54.49,-48 -32.66,-33.68 -58.16,-93.32 -76.48,-178.99 -1.02,-4.69 -9.03,-33.162 -24.03,-85.51 -15.002,-52.652 -31.99,-100.5 -50.97,-143.511 -2,-0.668 -7.86,-14.141 -17.5,-40.508 -9.34,-26.332 -9.848,-61.641 -1.532,-105.981 -4.328,3.68 -17.968,50 -40.968,138.989 -23.36,89.019 -31.02,197.851 -23.008,326.521 -1.684,-1.01 -6.992,-16.17 -16.024,-45.51 -8.976,-29.02 -11.129,-65.152 -6.476,-108.511 2.34,-8.668 2.648,-62.348 1.008,-160.981 C 844.488,695.469 827.34,602.809 795,516.48 c 0.352,8.68 1.02,54.141 1.988,136.489 1.024,82.34 0.352,149.492 -1.988,201.519 -3.012,-1.679 -11.328,-29.019 -25,-82.027 -13.98,-52.66 -16.328,-120.82 -6.988,-204.492 0.66,-3.008 -0.352,-19.34 -3.012,-48.989 -2.66,-29.679 -11.641,-55 -26.988,-76.011 4.328,-5.309 43.828,-39.137 118.508,-101.489 74.652,-62.652 157.97,-121.011 250,-175 92,-54.019 166.14,-71.1714 222.5,-51.519" /><path
         id="path18"
         style="fill:#000000;fill-opacity:1;fill-rule:evenodd;stroke:none"
         d="m 562.5,338.98 c 3.359,-2.648 19.18,-27.648 47.5,-75 28.672,-47.339 50,-100.66 64.02,-160 0.671,-4.9995 5.98,-16.5191 15.98,-34.4917 10.352,-17.6875 22.852,-11.168 37.5,19.4922 10.352,-7.3399 26.52,-36.8321 48.52,-88.51175 h 38 c -1.008,1.99219 -2.848,16.17185 -5.5,42.50005 -2.661,26.332 -0.86,51.5195 5.5,75.5112 2,-0.359 12.308,-8.519 30.98,-24.4995 18.672,-15.6602 32.852,-36.3203 42.5,-61.9922 1.68,1.6406 -0.82,16.8398 -7.5,45.4726 -6.641,28.6681 -27.5,61.3671 -62.5,98.0081 -2.34,1.679 -14.141,20.511 -35.512,56.519 -21.328,36.332 -39.488,80.821 -54.488,133.481 5,-0.981 33.16,-33.828 84.488,-98.481 C 863.359,202.66 908.52,113.828 947.5,0.46875 h 201.52 c -6.68,6.99219 -6.68,49.33205 0,126.99225 l -190,164.527 -273,147.973 c -2.348,4.34 -20.668,12.848 -55,25.508 -0.668,-2.348 -9.848,-15.508 -27.5,-39.489 -18.008,-23.992 -40.508,-45.82 -67.5,-65.511 -2.661,-1.328 -16.329,-12.348 -41.02,-33.008 -25,-20.66 -45.82,-43.32 -62.5,-67.973 1.988,-0.66 13.52,-9.328 34.488,-26.008 21.024,-16.332 39.532,-35.671 55.512,-58.011 -0.98,1.992 -6.84,12.5 -17.5,31.519 -10.98,18.992 -21.84,34.653 -32.5,46.992 0.352,1.641 8.52,12.5 24.488,32.5 16.024,19.649 37.852,37.149 65.512,52.5" /><path
         id="path20"
         style="fill:#000000;fill-opacity:1;fill-rule:evenodd;stroke:none"
         d="m 1496.52,176.988 c -3.67,0 -20.86,-5.187 -51.52,-15.508 -30.66,-10.351 -53.16,-25.859 -67.5,-46.519 2.34,-1.992 13.67,-15.6602 34.02,-40.9805 20,-25.6602 34.5,-50.1524 43.48,-73.51175 h 121.52 c 0,2.33984 -5.35,17.65235 -16.01,46.01175 -10.67,28.0078 -26.02,54.4995 -46.02,79.4995 2.03,-0.671 13.52,-6.679 34.53,-18.011 21.33,-11.6409 40.47,-25.0002 57.5,-40.0002 0.32,2.3398 -8.51,15.8593 -26.52,40.5112 -18.01,25 -45.82,47.848 -83.48,68.508" /><path
         id="path22"
         style="fill:#000000;fill-opacity:1;fill-rule:evenodd;stroke:none"
         d="m 1882.5,1345.47 c 0.66,2.34 -3.83,9.49 -13.48,21.52 -9.33,11.99 -27.5,15.47 -54.53,10.47 -3.32,-3.32 -24.14,-8.48 -62.5,-15.47 -38.63,-7.03 -75.31,4.65 -110,35 -2.97,2.31 -10.97,20 -23.98,52.97 -13.01,33.01 -13.67,68.67 -1.99,107.03 -2.35,-5.35 8,-26.17 30.97,-62.5 22.7,-36.37 72.19,-56.37 148.52,-60 3.01,0.67 16.68,-5.35 41.01,-18.01 24.34,-12.65 39.65,-36.32 45.98,-71.01" /><path
         id="path24"
         style="fill:#000000;fill-opacity:1;fill-rule:evenodd;stroke:none"
         d="m 1611.52,1242.97 c 0.32,2.65 -5,11.99 -16.01,28.01 -11.33,16.32 -29.85,23.32 -55.51,21.01 l 6.52,15 c 7.66,1.99 17.5,4.14 29.5,6.49 13.98,1.99 25.82,3.82 35.5,5.5 v -4.49 c 0.67,-1.68 2.97,-8.51 7,-20.51 3.67,-11.99 5.97,-19.33 6.99,-21.99 -4.34,-10.66 -8.99,-20.35 -13.99,-29.02" /><path
         id="path26"
         style="fill:#000000;fill-opacity:1;fill-rule:evenodd;stroke:none"
         d="m 1619.49,1313.98 c 3.01,2 16.84,2.66 41.53,2 24.64,-0.67 43,-15.36 55,-43.99 2.65,7.97 5.15,19.65 7.5,35 1.99,-0.35 13.82,-4.69 35.5,-13.01 21.33,-8.36 39.5,-19.18 54.5,-32.5 -0.67,2.35 -12.66,13.32 -36.02,33.01 -23.32,19.34 -52.5,33.63 -87.5,42.97 l -101.99,-5 31.48,-18.48" /><path
         id="path28"
         style="fill:#000000;fill-opacity:1;fill-rule:evenodd;stroke:none"
         d="m 1554.49,1478.98 c -2.65,-1.01 -21.13,0.51 -55.47,4.5 -34.68,3.98 -69.53,16.48 -104.53,37.5 -1.64,-4.34 8.01,-16.18 29.03,-35.51 21.32,-19.65 65,-21.84 130.97,-6.49" /><path
         id="path30"
         style="fill:#000000;fill-opacity:1;fill-rule:evenodd;stroke:none"
         d="M 620,0.46875 C 619.691,4.14063 602.5,31.6406 568.52,82.9688 534.488,134.648 485.859,187.148 422.5,240.469 c -1.988,-1.989 -15.309,-18.008 -40,-48.008 -24.34,-30 -46.48,-61.332 -66.48,-93.9805 1.992,2.9995 15.152,16.9885 39.492,41.9885 24.328,25 48.508,43.511 72.5,55.511 3.976,-2.351 21.679,-23.32 53.008,-63.011 C 512.34,93.6289 533.828,49.4883 545.512,0.46875 H 620" /><path
         id="path32"
         style="fill:#000000;fill-opacity:1;fill-rule:evenodd;stroke:none"
         d="m 1188.01,139.961 c -8.32,-3.633 -14.18,-35.473 -17.5,-95.4727 0.35,3.6328 4.65,18.832 13.01,45.4726 8.67,26.3671 20.15,43.0081 34.49,50.0001 h -30" /><path
         id="path34"
         style="fill:#000000;fill-opacity:1;fill-rule:evenodd;stroke:none"
         d="m 1376.99,115.469 c -9.33,-2.66 -21.13,-40.9807 -35.47,-115.00025 h 17.97 c -0.97,2.33984 0.67,16.33205 5,41.99215 4.69,25.6602 16.84,50.5079 36.53,74.5271 l -24.03,-1.519" /><path
         id="path36"
         style="fill:#000000;fill-opacity:1;fill-rule:evenodd;stroke:none"
         d="m 1332.5,99.9609 c -3.32,-4.3398 -4.34,-21.6406 -3.01,-51.9921 0,1.6796 2.5,10.8593 7.5,27.5 5,16.6796 12.19,29.4922 21.53,38.5112 -6.68,-3.671 -15.36,-8.359 -26.02,-14.0191" /><path
         id="path38"
         style="fill:#000000;fill-opacity:1;fill-rule:evenodd;stroke:none"
         d="m 960,1145.47 c 1.02,10.35 25.352,57.65 73.01,141.99 47.65,84.34 113.16,144.69 196.48,181.02 -3.98,7.34 -34.65,-4.65 -91.99,-36.02 -57.34,-31.64 -116.48,-127.3 -177.5,-286.99" /><path
         id="path40"
         style="fill:#000000;fill-opacity:1;fill-rule:evenodd;stroke:none"
         d="m 1325,139.488 c -4.34,3.321 -27.66,26.992 -70,70.981 -42.34,43.672 -77.34,87.5 -105,131.519 -5.66,6.992 -25,43.481 -58.01,109.492 -33.32,66.329 -47.81,120.321 -43.47,162 -1.02,1.321 0.31,10.5 3.98,27.5 3.36,16.989 14.34,32.34 33.01,46.008 6.68,4.653 18.16,20.313 34.49,46.992 9.02,0.981 23.52,12 43.52,33.008 -2.66,4.34 4.64,12.313 21.99,23.992 5,-0.671 17.15,11.321 36.48,36.008 6.02,-3.359 25.2,11.332 57.5,43.992 7.7,1.008 19.34,8.668 35,23 -0.31,4.649 8.87,9.34 27.5,13.989 7.03,-2.348 19.53,2.652 37.5,15 7.35,0.351 19.34,7.652 36.02,21.992 11.33,-5.313 31.01,2.34 58.98,23.008 2.03,-0.309 11.37,-0.16 28.01,0.511 16.68,1.008 29.34,4.489 38.01,10.5 7.34,-1.011 20.15,2.348 38.51,10 3.64,-10.66 27.66,-10.66 72,0 10.66,-1.992 27.34,0.161 50,6.489 1.64,0.351 11.83,0 30.5,-0.981 18.32,-1.008 34.14,-4.328 47.5,-10 -1.68,-7.027 12.82,-9.527 43.48,-7.5 5,-11.367 25.86,-16.828 62.5,-16.519 0,-11.989 19.34,-18.168 58.01,-18.481 6.68,-9.328 21.99,-18.867 46.01,-28.508 2,-11.332 21.64,-23.519 58.99,-36.492 8.67,-3.668 8.67,-21.519 0,-53.508 -7.66,-1.332 -16.33,-12.66 -26.02,-33.992 -9.65,-1.679 -20.15,-17.687 -31.48,-48.008 -8.67,-0.351 -14.49,-12.179 -17.5,-35.5 -6.02,-0.671 -16.49,-13.679 -31.49,-38.992 -11.01,-3.668 -16.17,-16.008 -15.5,-37.027 -9.34,2.699 -15.16,-5.981 -17.5,-25.981 -12,2.661 -20.51,-9.492 -25.51,-36.519 -9.34,-0.66 -18.01,-12.813 -26.02,-36.481 -11.99,3.321 -25.31,-11.492 -40,-44.5 -1.99,0.321 -11.13,-2.851 -27.5,-9.492 -15.97,-6.679 -26.48,-17.847 -31.48,-33.508 -1.33,-0.359 -7.66,-3.679 -18.99,-10 -11.36,-6.679 -17.85,-13.832 -19.53,-21.492 -10.31,2.313 -3.63,14.344 20,35.981 2.03,1.332 12.85,11.832 32.5,31.519 20,20 37.35,40.981 52.03,62.973 2.97,3.359 14.65,26.519 35,69.527 20.67,42.973 33.32,86.133 37.97,129.492 -5.97,10.981 -27.81,-3.671 -65.47,-44.019 -1.36,-2.66 -9.18,-22.152 -23.51,-58.481 -14.34,-36.32 -28.52,-74.679 -42.5,-115 -8.32,4.34 -15,42.5 -20,114.5 1.99,3.981 1.17,19.641 -2.5,46.989 -3.99,27.652 -24.18,43.011 -60.51,46.011 -10.31,-7.652 -57.34,-58.511 -140.98,-152.5 -83.67,-93.671 -143.16,-183.671 -178.51,-270 -6.02,-10.66 2.5,-33 25.51,-66.992 -7.35,-6.008 7.5,-5.508 44.49,1.492 4.33,-9.652 18.67,-7.859 43.01,5.5 -6.33,-11.011 -32.19,-29.179 -77.5,-54.492 -2.35,-0.347 -13.52,-5.508 -33.52,-15.508 -19.65,-10.351 -33.01,-23.511 -40,-39.492" /><path
         id="path42"
         style="fill:#000000;fill-opacity:1;fill-rule:evenodd;stroke:none"
         d="m 1559.49,215.98 c 3.67,-2 16.37,3.981 38.01,18 21.68,13.68 30.16,46.489 25.51,98.481 -7.66,11.019 -3.99,27.5 11.01,49.527 2,-8.008 17.5,-15.656 46.49,-23.008 28.98,-7.648 58.83,32.821 89.49,121.489 3.36,1.332 14.34,14.019 33.01,38.011 18.67,23.981 23.51,50.5 14.49,79.489 l 19.49,108.511 -425.47,120 -295,-296.992 90.98,-191.008 c 1.99,-3.679 35.35,-21.492 100,-53.519 65,-31.992 149.02,-55 251.99,-68.981" /><path
         id="path44"
         style="fill:#ffffff;fill-opacity:1;fill-rule:evenodd;stroke:none"
         d="m 1238.52,807.461 c -10.36,-13.633 -20,-23.481 -29.03,-29.492 9.69,-18.989 16.02,-43.168 19.03,-72.5 4.33,12.34 18.67,53.359 43,123.011 -13.67,-10.671 -24.68,-17.66 -33,-21.019" /><path
         id="path46"
         style="fill:#ffffff;fill-opacity:1;fill-rule:evenodd;stroke:none"
         d="m 1804.49,950.469 c -20,1.332 -33.16,6.011 -39.49,14.019 -12.66,4.34 -31.99,6.641 -58.01,6.992 -7.3,-4.019 -22.97,-6.171 -46.99,-6.519 -0.98,0 -2.15,0 -3.48,0 -13.67,-6.332 -27.69,-9.492 -42.03,-9.492 -14.65,0.66 -26.48,3.011 -35.47,6.992 -11.01,-3.981 -20.86,-6.332 -29.53,-6.992 -7.3,-6.328 -28.47,-10.16 -63.47,-11.489 -21.02,-16.011 -40.86,-23.671 -59.5,-23 -12.34,-9.339 -23.36,-15.671 -33,-18.992 -23.36,-14.328 -40.51,-20.347 -51.53,-18.008 -3.98,-0.351 -6.48,-1.32 -7.5,-3 -5.31,-8.011 -11.99,-14.5 -20,-19.5 1.68,-8.359 1.68,-16.519 0,-24.492 2.35,4.34 11.37,5 27.03,1.992 15.32,-2.652 22.5,-33.671 21.49,-93 5.35,-10.359 -18.52,-38.992 -71.49,-86.019 1.64,-3.32 0.32,-17.152 -4.02,-41.481 -4.34,-23.992 -23.01,-39.5 -55.98,-46.492 -10.35,5 -19.02,-5.859 -26.01,-32.5 3.01,-1.367 16.17,-11.367 39.49,-30 23.01,-18.359 38.01,-37.34 45,-57.027 4.34,3.359 26.68,10 66.99,20 40.35,10 73.36,3.871 99.03,-18.481 1.99,-1.011 3,-8.671 3,-23 0.32,-14.339 -12.69,-28.32 -39.02,-42 -2.34,-0.66 -13.67,-8 -33.98,-21.992 -20.36,-14.019 -35.67,-29.687 -46.02,-47.027 1.68,1.019 9.34,0.199 23.01,-2.5 13.67,-2.66 22.85,-12.5 27.5,-29.492 1.99,1.332 10.51,2.191 25.51,2.5 15,0.351 25,-6.641 30,-20.981 1.64,2.313 9.49,5.473 23.47,9.492 13.67,4.34 23.87,-2.851 30.51,-21.519 1.33,1.68 7.66,3.668 19.02,6.019 11.33,2.649 18.83,-3.992 22.5,-20 2,1.68 9.14,5 21.49,10 12.34,4.641 19.18,1.008 20.51,-11.019 1.64,-0.66 6.64,4.527 15,15.508 8.67,10.66 10.82,30.152 6.48,58.511 -11.64,10.668 1.33,41.84 39.02,93.481 0.67,-6.992 10.67,-15.313 30,-25 18.99,-9.652 43.17,21.019 72.5,92.027 -3,-7.34 -18,-23.156 -45,-47.5 -27.03,-24.328 -48.36,-12.187 -64.02,36.492 -0.31,3 -2.15,18.161 -5.51,45.5 -2.97,27.352 -5.66,49.5 -7.97,66.489 0,3.011 4.81,13.832 14.5,32.5 9.64,18.359 24.33,25.511 43.98,21.519 4.02,0.981 19.69,-5.347 46.99,-19.019 27.03,-13.989 41.68,-42.66 44.03,-85.981 10.66,-2.34 16.17,28.172 16.48,91.492 -0.66,1.68 0.51,14.489 3.52,38.508 2.65,24.34 10.31,49.813 23,76.492 3.32,1.989 10.32,24.18 20.98,66.481 10.66,42.699 3.67,93.16 -20.98,151.519 -4.02,-1.011 -8,-1.32 -12.03,-1.011" /><path
         id="path48"
         style="fill:#000000;fill-opacity:1;fill-rule:evenodd;stroke:none"
         d="m 1604.49,494.488 c 1.37,3.321 0.51,9.344 -2.5,17.973 -2.97,8.668 -15.15,0.199 -36.48,-25.473 -3.67,-3.008 -17.15,-18.867 -40.51,-47.5 -23.67,-28.668 -35.51,-52.687 -35.51,-72.027 -4.33,-11.992 7.7,-13.832 36.02,-5.473 3.67,1.992 4.84,9.813 3.51,23.481 5.98,1.011 12.5,-7.149 19.5,-24.489 -2,-7.66 1.48,-14.851 10.5,-21.492 -1.01,-12.027 8.64,2.813 28.99,44.492 0.66,2.352 5.15,15.668 13.51,40 7.97,24.34 14.34,45.821 18.99,64.5 0.66,1.989 0.82,6.321 0.51,13 0,6.641 -5.51,4.34 -16.53,-6.992" /><path
         id="path50"
         style="fill:#000000;fill-opacity:1;fill-rule:evenodd;stroke:none"
         d="m 1505.51,520.469 c 8.67,-4.34 21.17,6.519 37.5,32.5 -0.35,1.679 1.33,7.5 5,17.5 3.67,10 11.33,15.152 23.01,15.511 5.97,-2.66 15,3.821 26.99,19.489 8.32,4.691 3.16,22.34 -15.51,53.011 0.35,1.68 -8.83,8.668 -27.5,21.008 -18.32,11.992 -47.66,18.832 -88.01,20.473 -3.63,2.027 -21.13,0.66 -52.5,-3.981 -31.33,-4.339 -53.98,-23.679 -67.97,-58.011 -1.68,-0.981 -4.53,-11.641 -8.51,-31.989 -3.67,-20 2.15,-42.859 17.5,-68.519 -1.33,-8.32 23.16,-15.16 73.51,-20.473 6.33,-0.656 31.84,0.473 76.49,3.481" /><path
         id="path52"
         style="fill:#000000;fill-opacity:1;fill-rule:evenodd;stroke:none"
         d="m 1568.52,886.48 c -3.36,1.329 -10,-1.679 -20,-9.019 -9.69,-7.301 -1.53,-26.992 24.49,-58.981 2.65,-1.679 15.51,-13.679 38.51,-36.019 23.32,-22.301 40,-45.82 50,-70.473 -0.66,-1.679 0.32,-6.168 2.97,-13.508 2.35,-7 10,-6.839 23.01,0.5 0,1.641 6.17,6.329 18.52,13.989 11.99,7.652 29.33,8.832 51.99,3.511 9.33,1.641 21.83,-13 37.5,-44.019 l 41.48,34.527 v 91.492 c 1.02,-7.66 -13.47,-17 -43.47,-28.011 -9.34,-4.34 -38.83,-4.649 -88.52,-0.981 -4.65,-2.027 -18.16,7.313 -40.51,27.973 -1.99,3.359 -13.98,17.34 -35.97,42.027 -22.35,24.34 -42.35,40 -60,46.992" /><path
         id="path54"
         style="fill:#000000;fill-opacity:1;fill-rule:evenodd;stroke:none"
         d="m 1305,267.969 c -0.31,-9.649 15.66,-15.981 48.01,-18.989 -4.34,-1.992 -2.5,-7.339 5.51,-16.011 3,-8.321 21.48,-9.649 55.5,-3.989 -5.35,-2.339 -0.19,-8.359 15.47,-18 4.34,-5 20,-3.519 47.03,4.489 -4.02,-3.668 0.16,-8.828 12.5,-15.508 1.33,-2.973 13.99,-0.981 37.97,6.019 -5.97,-5.671 3.36,-8.832 28.01,-9.5 4.69,-1.679 16.33,9.141 35,32.5 l -66.99,2.5 -103.01,28.989 -61.48,19.492 -40.51,12.027 -13.01,-24.019" /><path
         id="path56"
         style="fill:#ffffff;fill-opacity:1;fill-rule:evenodd;stroke:none"
         d="m 1526.02,254.961 c 1.64,0.66 4.84,-1.992 9.49,-7.973 4.65,-5.66 0.15,-17.687 -13.52,-36.008 -5,-1.679 -12.3,-1.679 -21.99,0 8.67,8.981 17.34,23.668 26.02,43.981" /><path
         id="path58"
         style="fill:#ffffff;fill-opacity:1;fill-rule:evenodd;stroke:none"
         d="m 1569.49,247.461 c 1.68,0.66 4.18,-1.332 7.5,-5.981 3.36,-4.679 -1.64,-16.832 -15,-36.519 -5.31,-1.641 -12.97,-1.133 -22.97,1.519 9.65,8.321 19.81,22 30.47,40.981" /><path
         id="path60"
         style="fill:#ffffff;fill-opacity:1;fill-rule:evenodd;stroke:none"
         d="m 1481.52,272.461 c 1.64,0.348 5,-2.813 10,-9.492 4.65,-6.989 -0.66,-20.16 -16.01,-39.489 -5,-4.652 -15,-5.671 -30,-3.011 11.33,5.66 23.32,23.011 36.01,51.992" /><path
         id="path62"
         style="fill:#ffffff;fill-opacity:1;fill-rule:evenodd;stroke:none"
         d="m 1425.51,284.961 c 11.99,0.348 9.18,-15 -8.52,-45.981 -1.99,-3.671 -11.64,-5.152 -28.98,-4.492 1.68,1.332 7.85,8.321 18.51,20.981 10.98,12.34 17.31,22.191 18.99,29.492" /><path
         id="path64"
         style="fill:#ffffff;fill-opacity:1;fill-rule:evenodd;stroke:none"
         d="m 1365.51,309.488 c 1.68,-0.347 4.49,-5.187 8.51,-14.527 3.99,-9.652 -1.17,-22.5 -15.5,-38.481 -5.67,-1.992 -14.34,-1.992 -26.02,0 10.35,5.321 21.33,23.008 33.01,53.008" /><path
         id="path66"
         style="fill:#ffffff;fill-opacity:1;fill-rule:evenodd;stroke:none"
         d="m 1119.49,0.46875 h 16.53 c 13.67,37.33985 -13.83,106.17225 -82.5,206.51925 -65.36,89.34 -97.661,157.66 -97,205 0.671,46.992 7.152,75.672 19.5,85.981 -5.36,1.992 -10.36,4.332 -15,6.992 C 946.68,490.98 939.691,458.98 940,408.98 c 0.352,-50 33.828,-120.66 100.51,-211.992 66.68,-98.0075 93.01,-163.5075 78.98,-196.51925" /><path
         id="path68"
         style="fill:#000000;fill-opacity:1;fill-rule:evenodd;stroke:none"
         d="m 1202.5,995.98 c 0.66,4.33 22.19,33.51 64.49,87.5 42.35,54.33 101.37,107.5 177.03,159.49 75.32,52.34 163.48,77.65 264.5,76.01 l -18.52,13.01 h -180 l -250.98,-110.51 -119.53,-155.5 -3.47,-73.519 66.48,3.519" /><path
         id="path70"
         style="fill:#ffffff;fill-opacity:1;fill-rule:evenodd;stroke:none"
         d="M 1276.02,719.488 C 1258.01,641.801 1223.67,581.129 1173.01,537.461 1122.34,494.141 1066.84,477.809 1006.52,488.48 946.84,503.121 902.66,540.469 874.02,600.469 845,660.82 838.012,730.16 853.012,808.48 c 18.008,77.649 52.34,138.161 103.008,181.481 50.66,43.669 106.17,60.199 166.48,49.529 59.34,-14.69 103.52,-52.189 132.5,-112.502 29.02,-60 36.02,-129.179 21.02,-207.5" /><path
         id="path72"
         style="fill:#000000;fill-opacity:1;fill-rule:evenodd;stroke:none"
         d="m 1270,720.469 c 0,0.351 1.02,6.011 3.01,16.992 1.01,5.66 1.83,12.5 2.5,20.508 1.01,8.359 1.48,17.851 1.48,28.511 0,5 0,10.508 0,16.489 -0.31,5.66 -0.66,11.679 -0.97,18.011 -0.36,6.68 -1.18,13.321 -2.5,20 -0.67,6.68 -1.84,13.668 -3.52,21.008 -5.66,29.34 -18.16,59.141 -37.5,89.492 -2.66,3.68 -5.16,7.348 -7.5,10.981 -3.01,3.668 -5.98,7.187 -8.98,10.508 -6.02,6.992 -12.66,13.672 -20,20 -3.68,3.011 -7.5,6.011 -11.53,9.021 -3.63,2.97 -7.65,5.67 -11.99,7.97 -4.34,2.34 -8.48,4.69 -12.5,7.03 -4.65,1.99 -9.14,3.99 -13.48,5.98 -40,14.69 -81.01,13.67 -123,-3.01 -41.02,-17.97 -75.36,-46.48 -103.008,-85.472 l -5.512,-7.027 -4.488,-7.5 c -3.012,-4.652 -6.024,-9.492 -8.992,-14.492 -6.008,-10.668 -11.168,-21.328 -15.5,-31.989 -2.348,-5.359 -4.692,-10.82 -7,-16.492 l -5.5,-16.519 c -3.36,-11.328 -6.329,-22.809 -9.032,-34.489 -5,-23.32 -7.648,-46.839 -7.968,-70.511 0,-11.989 0.468,-23.828 1.492,-35.508 0.66,-5.66 1.476,-11.481 2.5,-17.5 l 1.008,-8.481 2,-8.511 c 10,-46.641 30.152,-86.489 60.5,-119.489 15,-16.332 32,-28.832 50.98,-37.5 4.691,-2 9.488,-3.992 14.488,-6.019 5,-1.332 10.203,-2.813 15.512,-4.492 l 3.01,-0.981 3.98,-0.508 7.5,-1.011 c 5,-1.328 10,-1.989 15,-1.989 5,0 10,0 15,0 5,0.352 9.85,0.821 14.53,1.481 5,0.348 9.81,1.168 14.5,2.5 4.64,1.019 9.33,2.187 13.98,3.519 9.02,2.649 17.66,6.008 26.02,10 4.33,1.989 8.47,3.981 12.5,6.008 3.67,2.313 7.5,4.653 11.48,6.992 30,20 53.52,42.5 70.51,67.5 4.33,5.668 8.16,11.489 11.48,17.5 4.03,5.668 7.5,11.329 10.51,17 2.66,5.661 5.51,11.008 8.52,16.008 1.99,5.313 4.14,10.473 6.48,15.473 4.02,9.687 7.19,18.359 9.49,26.019 3.01,7.649 5,14.329 6.02,20 2.65,10.348 4.18,16.008 4.49,16.989 m 11.02,-2.5 c 0,-0.309 -1.33,-5.981 -4.03,-16.989 -1.33,-5.671 -3.32,-12.66 -5.97,-21.019 -2.35,-7.973 -5.67,-17.152 -10,-27.5 -2,-5 -4.18,-10.16 -6.53,-15.473 -2.97,-5.66 -5.97,-11.367 -8.98,-17.027 -2.66,-5.981 -6.02,-11.992 -10,-17.973 -3.67,-6.008 -7.85,-12.187 -12.5,-18.508 -17.35,-25.671 -41.68,-49.5 -73.01,-71.492 -3.98,-2.34 -8.01,-4.84 -11.99,-7.5 -4.34,-2.34 -8.67,-4.687 -13.01,-7.027 -8.67,-4.34 -18.01,-8.16 -28.01,-11.481 -5,-1.679 -10,-3.011 -15,-3.992 -5,-1.679 -10.15,-2.847 -15.47,-3.508 -5.35,-0.671 -10.66,-1.332 -16.01,-2 -5.67,0 -11.17,0 -16.49,0 -5.66,0 -11.36,0.508 -17.03,1.489 l -7.97,1.011 -4.53,0.508 c -1.99,0.672 -3.47,0.981 -4.49,0.981 -5.309,1.679 -10.512,3.16 -15.512,4.492 -5.66,1.68 -11.129,3.871 -16.476,6.519 -21.992,9.34 -41.684,22.661 -58.992,40 -34.329,35.668 -57.032,78.68 -68,128.989 l -2,9.492 -1.52,9.019 c -0.98,6.329 -1.84,12.5 -2.5,18.481 -1.328,12.699 -1.988,25.348 -1.988,38.008 0,25.351 2.5,50.511 7.5,75.511 l 5,18 c 1.328,5.981 3.008,12 5,18.008 l 6.476,18.481 c 2.352,6.011 4.692,11.832 7.032,17.5 5.32,11.679 10.98,23.011 17,34.019 3.32,5.313 6.64,10.473 10,15.473 l 5,8.008 5.968,7.5 c 30,41.992 68.012,72.341 114.032,91.011 47.65,17.35 93,17.35 135.97,0 5,-2.34 10.2,-4.68 15.51,-6.99 4.69,-2.69 9.18,-5.35 13.52,-8.01 5,-2.65 9.49,-5.86 13.47,-9.49 4.03,-3.01 8.01,-6.17 12.03,-9.53 7.66,-6.991 14.65,-14.339 20.98,-21.991 3.01,-3.989 6.02,-7.809 9.02,-11.489 2.66,-4.019 5.32,-8 7.97,-11.992 19.69,-32.687 32.35,-64.328 38.01,-95 1.68,-7.34 2.85,-14.687 3.52,-22.027 1.32,-6.992 2.14,-13.832 2.5,-20.473 0.31,-6.367 0.66,-12.5 0.97,-18.508 0,-6.332 -0.15,-12.152 -0.47,-17.5 0,-11.019 -0.66,-20.671 -2.03,-28.992 -0.66,-8.359 -1.48,-15.508 -2.5,-21.519 l -3.47,-17.5" /><path
         id="path74"
         style="fill:#000000;fill-opacity:1;fill-rule:evenodd;stroke:none"
         d="m 1156.02,736.988 c -21.33,-132.027 -79.85,-199.84 -175.508,-203.508 -43.992,5.661 -78.672,30.348 -103.992,73.981 -25.348,44.019 -35.661,96.84 -31.008,158.519 21.328,132.34 79.84,200.348 175.508,203.981 43.98,-5.66 78.67,-30.313 103.98,-73.981 25.35,-43.992 35.66,-97 31.02,-158.992" /><path
         id="path76"
         style="fill:#ffffff;fill-opacity:1;fill-rule:evenodd;stroke:none"
         d="m 1126.52,741.988 c 3.32,113.992 -35,180.16 -115,198.481 -25,1.992 -48.36,-4.649 -70,-20 13.992,5.351 28.48,7.5 43.48,6.519 80,-18.359 118.52,-84.687 115.51,-199.019 -8.99,-70.981 -35.82,-122.348 -80.51,-153.989 59.34,25 94.84,80.981 106.52,168.008" /><path
         id="path78"
         style="fill:#000000;fill-opacity:1;fill-rule:evenodd;stroke:none"
         d="m 1745.51,1353.48 c 8.67,2.65 -0.51,17.65 -27.5,45 -27.35,27.65 -124.85,51.32 -292.5,71.01 -3.67,4.65 -43.01,-22.5 -118.01,-81.52 -75.31,-59.34 -165,-178.32 -268.98,-356.99 l 97.5,-38.519 c 0.31,6.019 23.98,43.159 70.97,111.519 47.35,68.68 116.37,132.66 207.03,192 90.32,59.64 200.82,78.82 331.49,57.5" /><path
         id="path80"
         style="fill:#000000;fill-opacity:1;fill-rule:evenodd;stroke:none"
         d="m 1170.51,680.98 c -43.67,-97.66 -90.67,-150.359 -141.02,-158.011 -50.662,-7.348 -77.97,-8.008 -81.99,-1.989 47.34,-32.351 101.02,-30.671 161.02,5 60.31,35.348 103.16,82.5 128.47,141.481 -23.63,2.699 -45.82,7.187 -66.48,13.519" /><path
         id="path82"
         style="fill:#ffffff;fill-opacity:1;fill-rule:evenodd;stroke:none"
         d="m 1383.52,1291.48 -121.53,53.01 -16.48,-17.5 114.49,-55 23.52,19.49" /><path
         id="path84"
         style="fill:#ffffff;fill-opacity:1;fill-rule:evenodd;stroke:none"
         d="m 1164.02,1004.49 c 2.66,7.66 37.82,47.81 105.47,120.47 67.35,72.7 150.51,131.84 249.53,177.5 98.99,45.66 197.15,32.03 294.5,-40.98 2.34,5.67 -8.83,28.68 -33.52,68.99 -24.34,40.35 -76.64,65.51 -156.99,75.51 -4.65,7.65 -54.18,-10 -148.52,-53.01 -94.33,-42.66 -205.97,-157.15 -335,-343.48 l 24.53,-5" /><path
         id="path86"
         style="fill:#000000;fill-opacity:1;fill-rule:evenodd;stroke:none"
         d="m 911.52,918.48 c 0.98,6.989 21.14,23.321 60.468,48.981 39.342,25.66 92.502,19.019 159.532,-20 1.64,1.367 13.64,4.527 35.98,9.527 22.34,5.313 44.34,3.832 66.02,-4.527 13.67,-0.981 14.84,4.18 3.47,15.508 l -62.5,50.511 -66.48,13.98 c -1.68,0.35 -9.65,1.02 -23.99,2.03 -14.02,0.67 -23.51,-0.19 -28.51,-2.5 -5,-3.01 -15.67,-6.01 -31.99,-9.02 -16.33,-3.01 -25.668,-4.65 -28.008,-5 -2.352,-1.33 -11.492,-7.15 -27.5,-17.5 -16.024,-10.669 -24.852,-18.482 -26.492,-23.482 -2.34,-5 -10.661,-13.867 -25,-26.519 -14.329,-12.66 -16.008,-23.321 -5,-31.989" /><path
         id="path88"
         style="fill:none;stroke:#000000;stroke-width:10;stroke-linecap:round;stroke-linejoin:round;stroke-miterlimit:10;stroke-dasharray:none;stroke-opacity:1"
         d="m 1203.01,650.98 c 3.16,7.649 13.51,46.68 30,120 11.48,71.68 -11.84,143.981 -70,220" /><path
         id="path90"
         style="fill:#000000;fill-opacity:1;fill-rule:evenodd;stroke:none"
         d="m 1154.02,1010.47 c 0.98,4.69 27.97,37.85 80.98,99.49 26.02,29.69 57.34,60.51 94.02,92.5 37,32.03 78.17,61.17 123.48,87.5 22.66,12.34 46.02,23.16 70,32.5 24.02,8.67 48.01,15 71.99,19.02 24.34,3.68 47.7,4.65 70,3.01 11.37,-0.66 22.19,-2.34 32.5,-5 10,-2.03 19.69,-4.53 29.03,-7.5 18.67,-6.01 34.84,-13.01 48.47,-21.01 14.03,-8.01 25,-16.18 33.01,-24.5 8.01,-8.36 13.36,-15.15 16.02,-20.5 3,-5.36 4.49,-8.01 4.49,-8.01 0,0 -1.68,2.5 -5,7.5 -3.32,5 -9.18,11.33 -17.5,19.02 -8.32,7.31 -19.49,14.65 -33.52,21.99 -13.63,7 -29.65,13.17 -47.97,18.48 -18.36,5.66 -38.36,9.53 -60,11.52 -21.68,1.64 -44.33,0.67 -68,-3 -47.66,-8.68 -94.03,-25.82 -139.03,-51.49 -44.65,-25.66 -85.15,-54.69 -121.48,-87.03 -36.33,-31.99 -67.5,-62.3 -93.52,-90.98 -26.33,-28.67 -46.33,-52.18 -60,-70.5 -13.98,-18.01 -21.13,-27.35 -21.48,-28.01 l -6.49,5" /><path
         id="path92"
         style="fill:#000000;fill-opacity:1;fill-rule:evenodd;stroke:none"
         d="M 240,0.46875 C 239.02,10.4688 258.52,67.4609 298.52,171.48 338.16,275.469 404.34,366.332 496.988,443.98 493.012,443.98 459.02,426.801 395,392.461 331.02,358.48 262.5,308.629 189.488,242.969 116.52,176.988 64.1797,96.1289 32.5,0.46875 H 240" /><path
         id="path94"
         style="fill:#000000;fill-opacity:1;fill-rule:evenodd;stroke:none"
         d="m 240,0.46875 c -2.34,6.67969 23.012,58.01175 76.02,154.01925 53.32,95.981 147.14,197.313 281.48,303.992 -7.66,4.641 -41.172,-0.16 -100.512,-14.5 -2.297,-1.679 -15.308,-10.859 -38.976,-27.5 -23.992,-16.679 -45,-31.32 -63.012,-44.019 -5,-2.973 -33.012,-27.973 -83.98,-75 C 260.352,250.82 216.68,200.98 180,147.969 L 202.5,4.48828 c 0.66,2.97266 5.16,8.63282 13.52,16.99222 8.32,8.0078 16.32,0.9804 23.98,-21.01175" /></g></g></svg>